<svg width="14" height="14" viewBox="0 0 14 14" fill="none" xmlns="http://www.w3.org/2000/svg">
<path d="M13.6962 6.37211C13.9717 6.10355 14.069 5.7094 13.9501 5.343C13.831 4.9766 13.5207 4.71504 13.1394 4.65954L9.74959 4.16699C9.60521 4.14596 9.48046 4.05541 9.41599 3.9245L7.90049 0.853131C7.73032 0.508036 7.38495 0.293579 7.00005 0.293579C6.61542 0.293579 6.27005 0.508036 6.09989 0.853131L4.58411 3.92478C4.51963 4.05569 4.3946 4.14624 4.25023 4.16727L0.860399 4.65982C0.479422 4.71504 0.168809 4.97688 0.0496662 5.34328C-0.0691964 5.70968 0.0280803 6.10383 0.303651 6.37239L2.75631 8.7631C2.86088 8.86514 2.90882 9.01204 2.88415 9.15557L2.30553 12.5314C2.25423 12.8285 2.33217 13.1176 2.52448 13.3455C2.82331 13.7007 3.34502 13.8089 3.76216 13.5897L6.79372 11.9957C6.92043 11.9292 7.07994 11.9298 7.20637 11.9957L10.2382 13.5897C10.3857 13.6673 10.5429 13.7066 10.7053 13.7066C11.0016 13.7066 11.2825 13.5748 11.4756 13.3455C11.6682 13.1176 11.7459 12.828 11.6946 12.5314L11.1157 9.15557C11.091 9.01176 11.1389 8.86514 11.2435 8.7631L13.6962 6.37211Z" fill="#F0BF5F"/>
</svg>
